<svg xmlns="http://www.w3.org/2000/svg" xmlns:xlink="http://www.w3.org/1999/xlink" viewBox="0 0 3025.12 1748.37"><defs><style>.cls-1{isolation:isolate;}.cls-2{fill:#9edff6;}.cls-3{fill:url(#Untitled_Gradient);}.cls-4{fill:#fe978e;}.cls-5{fill:#fae0b2;}.cls-6{fill:#f48c7f;}.cls-7{fill:#f7a491;}.cls-8{fill:#184655;}.cls-9{fill:#13375b;}.cls-10{fill:#3c8f7c;}.cls-11{fill:#50bfa5;}.cls-12{fill:#fff;}.cls-13{fill:#f47458;}.cls-14{fill:#355389;}.cls-15{fill:#466eb6;}.cls-16{fill:#20110c;}.cls-17{fill:#ff7446;}.cls-18{fill:#271798;}.cls-19{fill:#001c41;opacity:0.38;}.cls-20{fill:#e09379;}.cls-21,.cls-22{fill:#001653;}.cls-22,.cls-26,.cls-36{mix-blend-mode:multiply;}.cls-22{opacity:0.18;}.cls-23{fill:#dc7a63;}.cls-24{fill:#e6a088;}.cls-25,.cls-26,.cls-36{fill:#f26e5a;}.cls-26{opacity:0.65;}.cls-27{fill:#fc7e72;}.cls-28{fill:#422f7f;}.cls-29{fill:#9cb9bd;}.cls-30{fill:#021753;}.cls-31{fill:#ebce9a;}.cls-32{fill:#ebc98d;}.cls-33{fill:#f7cc7f;}.cls-34{fill:#db9044;}.cls-35{fill:#f99662;}.cls-36{opacity:0.4;}</style><linearGradient id="Untitled_Gradient" x1="358.05" y1="1156" x2="3199.64" y2="1156" gradientUnits="userSpaceOnUse"><stop offset="0" stop-color="#bce3f1"/><stop offset="1" stop-color="#d0f7ff"/></linearGradient></defs><g class="cls-1"><g id="Layer_1" data-name="Layer 1"><path class="cls-2" d="M341.76,1842S154.35,1194.7,509.39,813c227.37-244.42,598.34-171.8,598.34-171.8S1614.21-97.9,2109.51,217c665.85,423.28,650.94,2.13,1001.55,247.64,418.35,292.95,0,1417.63,0,1417.63Z" transform="translate(-271.87 -138.89)"/><path class="cls-3" d="M3073.47,717.53c-292.27-345.38-512,125.11-939.24-182.42-611.84-440.39-656.55,714.41-863,681.33-294.2-47.15-329.07-296.39-669.7-87.78-85.14,52.14-199,185.73-230.56,342-33.13,164,7.8,355.18,7.8,355.18l2707.59,51.32C3160.43,1697.21,3305.6,991.85,3073.47,717.53Z" transform="translate(-271.87 -138.89)"/><path class="cls-4" d="M0,1687H2924.84a0,0,0,0,1,0,0v6.79a54.63,54.63,0,0,1-54.63,54.63H54.63A54.63,54.63,0,0,1,0,1693.74V1687a0,0,0,0,1,0,0Z"/><rect class="cls-5" x="1339.14" y="318.67" width="392.24" height="201.33" rx="50.33" transform="translate(2798.65 699.77) rotate(180)"/><polygon class="cls-5" points="1349.45 357.76 1230.12 463.57 1256.19 354.43 1349.45 357.76"/><path class="cls-6" d="M2631.44,808.59,2625,779.15s-21.18,13.44-33.54,32.64-18.23,70.39-21.76,72.31-42.62-58.3-49.46-67.8c-8.45-11.74-11.61-25.22-16.9-35.46s-23.94-13.72-31-12.44,9.7,31.23,9.7,31.23,42.36,73.59,56.48,113.91,58.24,59.51,65.3,53.75S2631.44,808.59,2631.44,808.59Z" transform="translate(-271.87 -138.89)"/><path class="cls-7" d="M2502.84,786.48s-1.77-7.75-6.52-9.33-13-.18-13.56,0-9.69-4.76-9.69-4.76l7.58,14.09s14.79,17.44,19.72,10.92S2502.84,786.48,2502.84,786.48Z" transform="translate(-271.87 -138.89)"/><path class="cls-6" d="M2470.43,773s-5.34,27.18-4,32.87,4.76,2.65,5.4,1.41c2.63-5.11,4.46-22.54,4.46-22.54Z" transform="translate(-271.87 -138.89)"/><path class="cls-6" d="M2481.94,795.64s-2.55,16.86-5.17,18.84c-1.7,1.29-3.87.53-4.58-2.87s3.41-24.19,3.41-24.19Z" transform="translate(-271.87 -138.89)"/><path class="cls-8" d="M2497.51,843.47l8.86-4.32-37.65-77.25h0a9.86,9.86,0,0,0-4.55,13.18Z" transform="translate(-271.87 -138.89)"/><path class="cls-9" d="M2592.13,687.54c-5.31-24.16-10.52-48.47,3.49-75,11.34-21.47,30.94-33.83,53.63-36.52,64.28-7.63,50.54,52.37,140.37,65.36,27.92,4,53.85,7.92,77.16,21.8,42.08,25.07,58,65.29,30.06,130.8-68.34,160.42-236.09,24.23-256.81-7.36C2624.61,763.11,2595.55,703.09,2592.13,687.54Z" transform="translate(-271.87 -138.89)"/><path class="cls-7" d="M2849.19,1700.85s4.58,46.47,16.34,55S2893,1796,2885.14,1813c-2.45,5.34-7.35,8.42-12.93,10.14-16.53,5.09-34.12-3.48-41.16-19.28a97.76,97.76,0,0,1-8.07-35.44c-1.77-37.76-13.53-57-13.53-57Z" transform="translate(-271.87 -138.89)"/><path class="cls-7" d="M2668.38,1719.87s-3.71,46.89-.7,62.13c1.62,8.16,10.59,25,6.47,32.64s-8.82,9.6-8.82,9.6L2558.6,1826c-5.81.1-2-3.64,2.72-7.08,7.67-5.63,13.86-9.35,38.37-21.18,1.6-.77,7.42-4.46,9.52-5.74,5.32-3.25,10.66-8.35,15.26-13.46,7.67-8.52,8.34-49.81,8.34-49.81Z" transform="translate(-271.87 -138.89)"/><path class="cls-10" d="M2585,1096.56s-13.44,76.14-4.61,126,51.18,512.57,51.18,512.57l47.07,2.65s9.86-193.26,8.1-220.13-15.74-71.86-15.74-71.86l4.69-156-59.4-205Z" transform="translate(-271.87 -138.89)"/><path class="cls-11" d="M2723.3,1080.55s37.06,55.67,45.89,101.75-6.48,187.67,10.49,248c9.19,32.69,44,83.16,49.32,125.4s26.06,152.86,26.06,152.86l-47,9.31-109.34-276.29-85.76-249.73-22-128.62Z" transform="translate(-271.87 -138.89)"/><path class="cls-12" d="M2693.3,763.79s32.45,3.69,51.87,24.8-31.38,190.87-34.91,217.75,28.92,89.57,28.92,89.57-121.27,22.41-154.22.65c0,0-3.53-193.26,0-212.46s32.95-97.27,40-105S2693.3,763.79,2693.3,763.79Z" transform="translate(-271.87 -138.89)"/><path class="cls-7" d="M2739.19,804.53a17,17,0,0,0-23-10.06c-12.53,5.42-29.83,15.7-38.28,33.32-14.12,29.43-63.54,130.55-78.84,134.38s-77.66-104.95-77.66-104.95,1.77-19.19-3.53-30.07-21.17-22.4-23.53-18.56,8.83,13.44,8.83,15.36-4.71,3.2-11.18-.64-10-11.61-10-11.61-10.61,19.29.57,36.56,15.88,24.32,15.88,24.32,72.36,160.63,98.84,162.55C2622,1036.92,2764,879.43,2739.19,804.53Z" transform="translate(-271.87 -138.89)"/><path class="cls-7" d="M2677,698.35s.25,1.45.71,3.9c2.19,11.77,10.61,50.83,16.31,61.57,6.88,13-23.55,54.36-52.84,49.31-8.71-1.5,7.37-38,6.6-41.89-1.48-7.41-3.49-17.51-5.54-27.87-1.16-5.84-2.33-11.77-3.43-17.34-3.14-15.82-5.69-28.77-5.69-28.77Z" transform="translate(-271.87 -138.89)"/><path class="cls-13" d="M2677.67,702.25c-.46-2.45-.71-3.9-.71-3.9l-43.88-1.09s2.55,13,5.69,28.77c1.09,5.54,2.26,11.43,3.41,17.24,6.77-1,13.85-4.28,21-10.48A55.24,55.24,0,0,0,2679,709.23C2678.46,706.46,2678,704.08,2677.67,702.25Z" transform="translate(-271.87 -138.89)"/><path class="cls-7" d="M2650.56,594.06a51.81,51.81,0,0,1,30.87,19.21c13,16.74,26.94,68.49-5.27,96.63s-64-3.71-68.75-37.48S2603.64,592.84,2650.56,594.06Z" transform="translate(-271.87 -138.89)"/><path class="cls-7" d="M2597.1,660.88c3.84,7.46,10.3,11.59,14.41,9.22s4.34-10.32.5-17.78-10.3-11.59-14.42-9.23S2593.26,653.42,2597.1,660.88Z" transform="translate(-271.87 -138.89)"/><path class="cls-9" d="M2645.11,593.27s27.63,49.22,47.4,51.49,22.37,28.43,22.37,28.43-7.07-60.26-26.64-71.88S2645.11,593.27,2645.11,593.27Z" transform="translate(-271.87 -138.89)"/><path class="cls-7" d="M2686.05,656.49c-1.61,8.74,1.63,16.75,7.22,17.9s11.44-5,13-13.75-1.62-16.75-7.22-17.9S2687.66,647.75,2686.05,656.49Z" transform="translate(-271.87 -138.89)"/><path class="cls-10" d="M2827.85,1795.57c25.64,4.66,42.7-10.31,51.57-21.51,6.52,12.69,10.52,28.54,5.72,39-4.22,9.19-15.71,11.7-25.43,12.06a27.57,27.57,0,0,1-25-13.92A84.76,84.76,0,0,1,2827.85,1795.57Z" transform="translate(-271.87 -138.89)"/><path class="cls-10" d="M2609.22,1791.94c28.23,7.23,49.09,2.31,60.76-2.38,3,8.51,7,19.19,4.89,25.35-2.59,7.54-6.28,9.24-9.54,9.33-25.78.67-94.44,1.59-114.1,1.85a3.21,3.21,0,0,1-2.5-5.27C2553.61,1815,2607.12,1793.22,2609.22,1791.94Z" transform="translate(-271.87 -138.89)"/><rect class="cls-5" x="2345.24" y="295.96" width="316.43" height="162.41" rx="40.6" transform="translate(4735.04 615.44) rotate(180)"/><polygon class="cls-5" points="2288.99 297.08 2319.79 389.49 2230.18 297.08 2288.99 297.08"/><path class="cls-12" d="M2568.79,383.35c0,8.17,7.09,14.79,15.85,14.79s15.84-6.62,15.84-14.79-7.09-14.79-15.84-14.79S2568.79,375.18,2568.79,383.35Z" transform="translate(-271.87 -138.89)"/><path class="cls-12" d="M2487.77,383.35c0,8.17,7.1,14.79,15.85,14.79s15.85-6.62,15.85-14.79-7.09-14.79-15.85-14.79S2487.77,375.18,2487.77,383.35Z" transform="translate(-271.87 -138.89)"/><path class="cls-12" d="M2406.76,383.35c0,8.17,7.1,14.79,15.85,14.79s15.85-6.62,15.85-14.79-7.09-14.79-15.85-14.79S2406.76,375.18,2406.76,383.35Z" transform="translate(-271.87 -138.89)"/><rect class="cls-7" x="526.6" y="101.38" width="374.34" height="192.14" rx="48.03"/><polygon class="cls-7" points="645.85 267.01 609.41 376.33 715.42 267.01 645.85 267.01"/><path class="cls-12" d="M908.34,343.65c0,9.67-8.39,17.5-18.75,17.5s-18.75-7.83-18.75-17.5,8.4-17.5,18.75-17.5S908.34,334,908.34,343.65Z" transform="translate(-271.87 -138.89)"/><path class="cls-12" d="M1004.18,343.65c0,9.67-8.39,17.5-18.75,17.5s-18.75-7.83-18.75-17.5,8.4-17.5,18.75-17.5S1004.18,334,1004.18,343.65Z" transform="translate(-271.87 -138.89)"/><path class="cls-12" d="M1100,343.65c0,9.67-8.4,17.5-18.75,17.5s-18.75-7.83-18.75-17.5,8.39-17.5,18.75-17.5S1100,334,1100,343.65Z" transform="translate(-271.87 -138.89)"/><path class="cls-6" d="M1932.7,1129.85c19.85-5.72,20.38-2.18,22.9-3,3-.95,27-33.48,27-33.48s71.47-95.34,75.13-100.64l22.55-123.36,67.71-.54s-28.29,133.23-31.05,139.82-116,123.05-125.64,133.65c0,0-6.2,17.21-10.47,27.86s-13.43,18.43-15.13,21.2a91.86,91.86,0,0,1-17.41,17.9c-9.39,7.43-4.43-4.14-4.43-4.14s14.55-17.07,12.84-18.08c-1.31-.79-8.64,9-18.94,17.38-2.64,2.15-5.27,4.26-7.69,6.17-6.37,5-11.77,2.36-6.08-4a72.6,72.6,0,0,1,8.33-8.13c3.1-2.41,5-5.68,7.29-8.12,4.46-4.85,7.78-8.32,7.45-8.41s-.3-1.76-3.19.43c-3.48,2.62-9.43,9.92-14.89,13.36-3.1,2-9.28,6.45-9.28,6.45s-10.82,5-11.39,4.42c-3.12-3,3.08-8.48,7.7-10.56,2.09-2.87,8.74-7.4,8.74-7.4s11-12.32,9.1-14c-.82-.73-8.61,5.94-17.42,11.22-8.18,4.9-17.4,8.47-18.81,6.94-2.39-2.58,6-9,6-9s6.16-4.18,8.08-5.73c2.25-1.82,8.5-7.81,8.5-7.81s20.68-21.93,18.72-23.42-8.37-3.49-10.19-2.61-4.08,4.27-5.9,5.15a5.69,5.69,0,0,1-6.62-1.75c-1.51-2.19,5.23-9.87,5.23-9.87S1927,1131.5,1932.7,1129.85Z" transform="translate(-271.87 -138.89)"/><path class="cls-7" d="M2045.13,1748.75s2.4,42.57,2.42,42.65c.88,5.41,4.37,18.76,4.37,23.67,0,18.46-82.11-15.66-63.71-23.84,1.67-.74,10.39-6.34,10.94-12.62.84-9.68,3-29.26,3-29.26Z" transform="translate(-271.87 -138.89)"/><path class="cls-8" d="M1988.41,1791.05s19.28,5.65,29.16,7.06,22.89-10.47,29.87-7.27c7.69,3.54,6.91,38.33,6.91,38.33s-102.91,6.07-132-3.3C1910.85,1822.16,1949,1804.2,1988.41,1791.05Z" transform="translate(-271.87 -138.89)"/><path class="cls-7" d="M2226,1752.83s2.41,42.57,2.42,42.66c.89,5.4,4.38,18.75,4.38,23.67,0,18.45-82.12-15.67-63.72-23.85,1.67-.74,13-10.52,13.53-16.8.85-9.68.4-25.08.4-25.08Z" transform="translate(-271.87 -138.89)"/><path class="cls-8" d="M2169.33,1795.13s19.28,5.65,29.15,7.06,22.89-10.47,29.88-7.26c7.68,3.53,8,35.34,8,35.34s-110,8-135.89.48C2088.84,1827.39,2129.91,1808.28,2169.33,1795.13Z" transform="translate(-271.87 -138.89)"/><path class="cls-14" d="M2095.91,1138.39l-34.72,15-73,348.75,3,261.44,58.54,1.36s27.23-228.69,27.23-246.42S2203,1208.35,2203,1208.35Z" transform="translate(-271.87 -138.89)"/><path class="cls-15" d="M2122.71,1157.58s25.57,268.7,25.57,314S2169,1770.37,2169,1770.37l58.68-.34s4.24-77.27,10.53-190.94c1-17.81-1.27-53.73,0-72.16,9.13-132.56,27.18-257.35,18.56-306.82-1.39-8-4-28.78-9.08-34C2209.28,1126.32,2122.71,1157.58,2122.71,1157.58Z" transform="translate(-271.87 -138.89)"/><path class="cls-10" d="M2051.13,945.53l71-4.76s3.51-63.47,3.51-93.75c0-36.73,11.19-90.88,6.82-89.87C2120.17,760,2099,771.32,2089.12,785,2055,832.49,2051.13,945.53,2051.13,945.53Z" transform="translate(-271.87 -138.89)"/><path class="cls-11" d="M2219.36,755.75s40.49,5.63,51.15,13.45c12,8.82,25.32,28.54,25.32,28.54s-49.71,235-49.8,274.55c-.07,30.59,10.76,105.71,10.76,105.71s-150.23,9.48-207.13-13c0,0,18-89.34,18-112.8s21.49-236.78,26.38-251.68c4.44-13.51,12.55-37.8,40-43.79S2219.36,755.75,2219.36,755.75Z" transform="translate(-271.87 -138.89)"/><path class="cls-7" d="M2208.3,692.48l10,65.62s-36.6,78.14-58.45,71.36c-18.33-5.69-7-74.82-7-74.82s10-37.13,7-55.71S2208.3,692.48,2208.3,692.48Z" transform="translate(-271.87 -138.89)"/><path class="cls-13" d="M2159.81,698.93c-3-18.58,48.49-6.45,48.49-6.45l.83,5.44a30.22,30.22,0,0,1-5.58,9.15c-11.5,12.29-29.48,19.68-45,20.23C2160.09,717.29,2161,706.55,2159.81,698.93Z" transform="translate(-271.87 -138.89)"/><path class="cls-7" d="M2216.75,599.64c1.45-.53,11.66,74.74-7.71,95.45s-57.12,27.49-70.66,11.18c-15-18-14.22-98.94,15.9-120.24S2216.75,599.64,2216.75,599.64Z" transform="translate(-271.87 -138.89)"/><path class="cls-9" d="M2165.74,545.77c23.29,4.71,38.37,18.85,43.91,24.87,10.57,1.24,24.94,7,39.77,31.45,18.25,30,4.77,63.25-16.46,79.56s-21,35.24-21,35.24l-3.3-9.84A54.06,54.06,0,0,1,2206,684.1a44.82,44.82,0,0,1,3.43-13.8c5.11-10.89-11-18.13-15.48-27.19-3.47-7-3.64-23-9.11-34.48l-6.53-8.81s-15.07-11.65-29.81-8.36S2135.87,539.72,2165.74,545.77Z" transform="translate(-271.87 -138.89)"/><path class="cls-7" d="M2194.94,656.5c-.15,9.18,4,16.7,9.39,16.79s9.79-7.28,9.94-16.46-4.05-16.7-9.38-16.79S2195.1,647.32,2194.94,656.5Z" transform="translate(-271.87 -138.89)"/><path class="cls-9" d="M2116.1,994.79l-1,5.6a5.3,5.3,0,0,1-6.13,4.32L1992.88,984.6a5.3,5.3,0,0,1-4.31-6.13l1-5.6a5.3,5.3,0,0,1,6.12-4.32l116.12,20.12A5.29,5.29,0,0,1,2116.1,994.79Z" transform="translate(-271.87 -138.89)"/><path class="cls-7" d="M2280.72,786c-13.63-.4-25.68,89.47-17,98.33S2274,1003.89,2274,1003.89l-128.52-3.19,0,0c-2.51-1.68-29.43-19.76-33.28-23.72-4-4.14-23.66-2.07-28.86,3.63s11.55,1,16.16,4.15-3.46,10.88-3.46,10.88-32.57,4.73-38.92-2-23.31-18.14-25.62-11.4c-1.19,3.47,7.56,14,12.48,18.43-6.15-4.61-13.51-9.5-16-8.65-4.61,1.56-2.69,7.43-.19,9.16s28.36,21.47,32.4,22.85,64.09,2.84,74.48,5.14c0,0,169.49,38.59,179.12,36.19,8.46-2.12,16.91-56.37,16.91-97.92S2323.29,787.24,2280.72,786Z" transform="translate(-271.87 -138.89)"/><path class="cls-11" d="M2263,765.51s23.71,5.46,48.2,33c22.28,25,36.31,165.19,36.31,165.19l-76.91,12.43-6.14-67.8-20.55-31Z" transform="translate(-271.87 -138.89)"/><path class="cls-16" d="M1275.34,630.76s-62.92-16.16-70.42,50.79,26.55,77.35,8.08,109.67-39.25,8.08-43.29,99.85,206.44,203.26,261.87,148.78c180.22-177.13-33.64-249.29-25-303.55s-16.08-100.31-49-119.93S1282.84,596.7,1275.34,630.76Z" transform="translate(-271.87 -138.89)"/><path class="cls-17" d="M1489,1769s-1.15,17.45,7.75,27.38,42,15.18,46.43,26.47-33.34,12-46,8.53-45.7-6.18-54-6.63,10.62-55.35,12.31-56.87S1489,1769,1489,1769Z" transform="translate(-271.87 -138.89)"/><path class="cls-17" d="M1295.76,1758.16s8.19,36.86,7.42,51.09-18.1,36.3-31.41,35.57-24.33-9.61-21.09-26.93,13.33-58.48,13.33-58.48Z" transform="translate(-271.87 -138.89)"/><path class="cls-15" d="M1197.06,1135.79s-8.49-280.77,4.84-294.1c5.34-5.34,49-19.75,78.8-24.65,44.62-7.34,79.58-4.19,79.58-4.19s45.47,54.49,45.47,74.72,2.91,250.39,2.91,250.39c35.19,13,89.66,246.12,93.74,306.19s-4.75,339.48-4.75,339.48l-51.25-5.56c-28-43.88-40.59-275-48.77-303.74-11.28-39.69-64.28-161.25-64.28-161.25l-27.29-11.9s6.32,183.22,4,225.45.32,246.77.32,246.77l-51.41-2.81c-40.25-72.18-69-405.2-68-422.65s-16.82-46-20.54-96C1167.47,1212.59,1197.06,1135.79,1197.06,1135.79Z" transform="translate(-271.87 -138.89)"/><rect class="cls-12" x="1287.03" y="1128.57" width="91.18" height="9.65" transform="translate(2393.37 2127.91) rotate(180)"/><rect class="cls-18" x="1318.52" y="1126.18" width="29.28" height="15.92" rx="5.86" transform="translate(2394.45 2129.39) rotate(180)"/><path class="cls-19" d="M1197.06,1135.79s-7.54-249.34,2.75-289.23c13.35-9,55.8-24.9,66.2-25.72-1.89,20.5,16.71,135.81,35.8,195,12,37.38,10.26,83.23,5.71,118.87h0a486.75,486.75,0,0,1-12.18,62.27c-1.1.33-29.4,15.52-78.57,15.52-2.11-.11-20.53-1.34-41.57-4.62C1183,1172.32,1197.06,1135.79,1197.06,1135.79Z" transform="translate(-271.87 -138.89)"/><path class="cls-19" d="M1348.17,1199.8c-1.08-3.55,7.28-44.09,9.9-65.06h0c17.29-140.41,1.73-319.24,1.49-322h0c1,1,4,4.38,8,9.17,12.2,15.55,35.59,47.09,37.94,63.15,0,.48.07,1,.07,1.41V887c0,2.54.05,7.58.11,14.56,0,1.35.07,2.77.16,4.24.58,59.21,2.77,232.21,2.77,232.21,11.37,4.19,24.74,31.35,37.79,68.23C1404.09,1208.84,1351.17,1209.61,1348.17,1199.8Z" transform="translate(-271.87 -138.89)"/><path class="cls-20" d="M1147.29,1172.43c-.08,35.21,94.69,37.69,139.74,17.47l-4.91-152.61-15.45-217.37s-56.94,11.3-76.32,24.48c0,0-6.29,226-11.8,271.95S1147.32,1156.38,1147.29,1172.43Z" transform="translate(-271.87 -138.89)"/><path class="cls-20" d="M1410.36,825.17s22.24,180,22.24,226.84,8.88,127.78,8.88,127.78-48,18.38-81.44,10.11c0,0,31.79-180.52,31.79-192.31s-32.23-184.87-32.23-184.87S1390.21,814.36,1410.36,825.17Z" transform="translate(-271.87 -138.89)"/><polygon class="cls-18" points="1168.24 1642.61 1230.43 1646.66 1230.51 1630.57 1165.76 1627.03 1168.24 1642.61"/><polygon class="cls-18" points="980.14 1632.25 1041.83 1636.29 1042.18 1620.28 977.43 1616.73 980.14 1632.25"/><path class="cls-21" d="M1446.7,1792.94c4.91,6.2,20.91,18.89,67.75,13.28,12.19,4.92,26,9.6,28.75,16.61,4.45,11.29-33.34,12-46,8.53s-45.7-6.18-54-6.63C1438.7,1824.48,1442.25,1808.07,1446.7,1792.94Z" transform="translate(-271.87 -138.89)"/><path class="cls-21" d="M1303.18,1809.25c-.78,14.23-18.1,36.3-31.41,35.57s-24.33-9.61-21.09-26.93c1.1-5.83,3-14.36,5-23.11,1.7,10.8,6.72,29.19,20.92,22.82,15.38-6.88,22.17-22.86,24.87-29.09C1302.62,1796.49,1303.45,1804.26,1303.18,1809.25Z" transform="translate(-271.87 -138.89)"/><path class="cls-22" d="M1436,1120.85c-18-.91-40.87-2.07-63.41-3.18,1.34-7.8,2.72-15.83,4.09-23.86l57.62,3.06C1434.8,1104.84,1435.38,1113,1436,1120.85Z" transform="translate(-271.87 -138.89)"/><path class="cls-22" d="M1284.58,1113.72h-.31c-14,0-68.39,14.85-88.16,14.85a38.35,38.35,0,0,1-18.7-4.86c0-.16.07-.34.1-.51q.59-3.21,1-6.85c.14-1.17.28-2.47.42-3.88.71-6.81,1.24-14.51,1.72-21.77h103.15Z" transform="translate(-271.87 -138.89)"/><path class="cls-20" d="M1410,825.56s16.82,3.54,40.57,83.11,8,181.79-8.42,192.4-175.54,6.69-175.54,6.69l-.61-57.33s120.48-18.83,132.41-33.46c2.93-3.59-2.1-19-1.05-36.5C1400.55,926.69,1410,825.56,1410,825.56Z" transform="translate(-271.87 -138.89)"/><path class="cls-23" d="M1404.08,1008.52s16.46-11.34,22.65-18.92,18.56-17.79,19.11-12.38-5.12,13.2-5.12,13.2,22.5-15.71,25.48-13.28,5.94,19.27,3.86,37.86-54.83,32.14-54.83,32.14Z" transform="translate(-271.87 -138.89)"/><path class="cls-24" d="M1193.7,1116.66c57.39,9.58,178.49-33.07,227.61-48.5l-18.41-63.71s-144.64,40-163.6,31.51c-9.37-4.21-33.37-48.75-42.18-94.06-9-46.35-6.77-97.5-6.77-97.5s-41.55,54.35-29.84,169.43C1169.44,1101.64,1168.45,1112.45,1193.7,1116.66Z" transform="translate(-271.87 -138.89)"/><path class="cls-23" d="M1208.22,985.9s13.55,11.47,24.11,20.08,27.13,31.76,27.13,31.76-19.65,4.67-26.54,5.37-29.53-11.9-37.4-11.1-5.58-10.86,4.07-8.86,19.19,3,19.19,3-22.63-14.84-33.2-23.45-2-15.13,6.63-8.08a85.25,85.25,0,0,0,18,11s-30.44-25.73-26-31.14S1208.22,985.9,1208.22,985.9Z" transform="translate(-271.87 -138.89)"/><path class="cls-25" d="M1332.85,749.94s3.25,45.47,7.47,55.4a14.92,14.92,0,0,0,5.57,6.49c12,8-9.39,109.28-20.28,107-11.74-2.41-40.77-65.2-50.13-85.57a12.06,12.06,0,0,1,5.76-16l.08,0c10.09-4.48,2.65-87.84,2.65-87.84Z" transform="translate(-271.87 -138.89)"/><path class="cls-26" d="M1290.67,726.1a5,5,0,0,0-2.14,4.85c.54,7,4.2,15.72,7.34,22,14.51,29,35.46,43,49.89,45-3.59-14.67-6.21-51.33-6.21-51.33Z" transform="translate(-271.87 -138.89)"/><path class="cls-27" d="M1282.38,693.63s7.43-32.84,32.06-42.58,47.15-2.42,55.7,29.72-3.82,83.14-18.78,98.79S1284.23,769,1282.38,693.63Z" transform="translate(-271.87 -138.89)"/><path class="cls-27" d="M1289.76,704s-12.34-19.13-19.92-8.07-.87,37.47,13.46,38.85S1289.76,704,1289.76,704Z" transform="translate(-271.87 -138.89)"/><path class="cls-17" d="M664.33,1753.88s-.14,1.44-.14,3.83c0,7.19,1.23,23,11.14,34.73,13.21,15.58,13.28,35-.67,38.29s-47.23-1.06-47.23-1.06-7.53-14.83-2.39-54.44,8.12-83.06,8.12-83.06l37.92-6.71Z" transform="translate(-271.87 -138.89)"/><path class="cls-28" d="M671.76,1770.72s14.06,21.65,17.35,30.69,2.59,31.5,0,33.82c-22.74,20.37-65.86,2-65.86,2a327.11,327.11,0,0,1-4.47-33.27c-1.49-18.33-.65-35.41,4.47-35.41s6,9.61,17.68,6.9S659.78,1768,671.76,1770.72Z" transform="translate(-271.87 -138.89)"/><path class="cls-12" d="M619.67,1813.12c8.76,3.89,20.67,8.43,31.74,10.22,11.81,1.92,27.72-4,39.72-10,.62,9.6-.27,20.36-2,21.93-22.74,20.37-65.86,2-65.86,2S621.22,1827,619.67,1813.12Z" transform="translate(-271.87 -138.89)"/><path class="cls-17" d="M773.76,1727.77c-4.92,17.55,0,36.88,12.56,48.47a65.8,65.8,0,0,0,15.14,10.6c22.08,11,50.69,8.49,54.68,31s-140.06-6.32-140.06-6.32,10-54.72,10.64-63.89-.88-42.82-.88-42.82l55.63-4.53Z" transform="translate(-271.87 -138.89)"/><path class="cls-28" d="M721.93,1772.79s-1.76,8.69-5.79,23.42a72.11,72.11,0,0,0-1.52,28.61s134.92,7.25,140.38,2.4,2.66-22.49,1.28-24.06-18.5-6.81-27.29-13-38.77-29.4-48.9-28.46-14.81,9.43-34.06,10.4S726.71,1768.55,721.93,1772.79Z" transform="translate(-271.87 -138.89)"/><path class="cls-12" d="M855,1827.22c-5.46,4.85-140.38-2.4-140.38-2.4a72.58,72.58,0,0,1-.13-20.4c70.43,14.8,141.79-1.26,141.79-1.26C857.66,1804.73,860.46,1822.37,855,1827.22Z" transform="translate(-271.87 -138.89)"/><path class="cls-29" d="M714.49,1804.42c48.09,10.9,101.41,8.59,141.79-1.26-73.44,12.58-132.66,2.84-128.56,3.31Z" transform="translate(-271.87 -138.89)"/><path class="cls-28" d="M608.6,1189.77l12.67,554.13,60.65-8.7s19.21-444.67,30.46-457.85,15.75.83,15.75.83,48.36,185,39.37,221.9-49.16,234.6-49.16,234.6l58.15,2.63s66.37-151.56,66.37-257-41-280.72-41-280.72Z" transform="translate(-271.87 -138.89)"/><rect class="cls-30" x="716.01" y="1720.68" width="70.03" height="16.31" transform="translate(1230.18 3318.77) rotate(180)"/><rect class="cls-30" x="615.9" y="1723.31" width="70.7" height="20.6" transform="translate(1030.64 3328.32) rotate(180)"/><path class="cls-30" d="M634.31,1731.4a1.74,1.74,0,0,0,.39-.05,2.12,2.12,0,0,0,1.36-2.51c-11.2-58.69-11.92-440-11.93-443.83a2,2,0,0,0-1.79-2.1h0a2,2,0,0,0-1.79,2.11c0,15.71.73,385.6,12,444.73A1.88,1.88,0,0,0,634.31,1731.4Z" transform="translate(-271.87 -138.89)"/><path class="cls-30" d="M728.21,1731.4a1.83,1.83,0,0,0,1.68-1.38c2.72-8.7,66.63-213.36,63-241.62-3.56-27.86-44.39-203.32-46.13-210.78a1.78,1.78,0,0,0-2.2-1.47,2.16,2.16,0,0,0-1.26,2.58c.42,1.82,42.51,182.68,46,210.29,3.49,27.21-62.17,237.43-62.83,239.55a2.21,2.21,0,0,0,1.07,2.7A1.5,1.5,0,0,0,728.21,1731.4Z" transform="translate(-271.87 -138.89)"/><polygon class="cls-31" points="519.24 662.85 603.89 774.52 504.15 810.9 519.24 662.85"/><path class="cls-5" d="M570.77,765.67c12.86-12.87,42.8-22.31,62.32-27.38a89.37,89.37,0,0,1,34.35-2l43.93,6s57.06,36.68,78.46,58.08,40.75,155.38,40.75,155.38l-9.69,51L832,1231.51c-4.91,0-152.23,18-234.08-6.54,0,0,0-119.89-2.26-192.69C586.09,977,553.74,782.69,570.77,765.67Z" transform="translate(-271.87 -138.89)"/><path class="cls-32" d="M571.67,764.8c6.74-6.29,17.13-11.36,25.62-14.87h0s16.22-8.89,30.94,51.79-4,134.52,2.55,141,149.84-.87,149.84-.87S696.89,990,656,1025.12c-16.39,14.07-59.85,21.46-59.93,21q-.18-7.15-.39-13.84C591.06,1005.58,551.94,783.19,571.67,764.8Z" transform="translate(-271.87 -138.89)"/><path class="cls-33" d="M933.24,892.67l-72,136a9.17,9.17,0,0,1-8.63,4.89l-85.5-5a9.29,9.29,0,0,1-8.11-12.44l44.09-124.13a9.19,9.19,0,0,1,8.1-6.14L924.6,879A9.3,9.3,0,0,1,933.24,892.67Z" transform="translate(-271.87 -138.89)"/><path class="cls-34" d="M752.27,1015.38l44.65-123a9.3,9.3,0,0,1,8.21-6.08l4.42-.26a9.32,9.32,0,0,0-5.62,5.61L759.28,1015.8a9.32,9.32,0,0,0,6.64,12.22l-5.44-.32A9.22,9.22,0,0,1,752.27,1015.38Z" transform="translate(-271.87 -138.89)"/><path class="cls-35" d="M591.15,931.06l6.79,24.43S742.62,918.16,759.6,910c13.74-6.6,68.35-21.2,88.69-19.78a2.88,2.88,0,0,1,.51,5.67C836,899,810.54,905.43,810.54,908c0,3.4,25.63,8.4,23.78,12.57-3.74,8.4-16.3,13.24-18.68,21.05s-28.39,1.7-37.29,1.7-174,100.19-223.88,76.42-19.7-129.23-19.7-129.23Z" transform="translate(-271.87 -138.89)"/><path class="cls-35" d="M862.45,983.37c3.31-3.31,3.14-11.46,7-15.29s8,3.91,9-4.75-5.09-22.08.85-21.4,14.1,25.14,14.1,25.14c4.28,10-15,47.2-25.12,44.67s-14.11-14.62-14.11-20.22S859.14,986.68,862.45,983.37Z" transform="translate(-271.87 -138.89)"/><path class="cls-12" d="M711.41,742.25h0l.22.14a.24.24,0,0,1,.09.06l.17.11.12.07.34.22.14.09.41.27.07,0a.41.41,0,0,1,.11.07l.1.06.22.15.12.07.91.6.18.11c5.42,3.55,17,11.21,29.88,20.26h0s5.35,21.45,2.8,35.21-7.9,18.08-15.54,15-22-23.43-25.26-22.29-25.43,28.91-36.13,24.58c-7.19-2.91-28.76-50.14-39.57-78.22l2.3-.6a89.18,89.18,0,0,1,34.35-2l43.93,6h0Z" transform="translate(-271.87 -138.89)"/><path class="cls-35" d="M734.42,707.48c-3.43,18-5,37.48-2,48.79,0,0-7.12,30.85-24.89,32.35s-51.42-53.12-51.42-53.12l37-58.14Z" transform="translate(-271.87 -138.89)"/><path class="cls-36" d="M730.93,735.79c-21.32-3.73-41.28-20-46.82-44.27l9-14.15,41.31,30.11A202.05,202.05,0,0,0,730.93,735.79Z" transform="translate(-271.87 -138.89)"/><path class="cls-35" d="M772.27,598.33s17.41,109.22-13.73,121.82-73.25-7.61-76.38-44.67S687,562.85,772.27,598.33Z" transform="translate(-271.87 -138.89)"/><path class="cls-18" d="M740.73,576s59.35-17.55,62.86-.2-16,30.24-29.65,31.39-48.4-.64-59,11.88-29.5,70.41-29.5,70.41L674.78,706.2s-4.36-30.5-19.74-49.14-6.73-50.73,8-72.68S727.27,577.08,740.73,576Z" transform="translate(-271.87 -138.89)"/><path class="cls-35" d="M702.88,649.23s-5.65-15.3-14-13.13c-19,4.94-5.06,38.74,1.18,39.67C702.72,677.65,707.85,667.64,702.88,649.23Z" transform="translate(-271.87 -138.89)"/><path class="cls-5" d="M624.39,812.55c.63,36.23-19,143.14-19,143.14s-76.08-1.53-82.19-7.64S536.7,780.61,570.3,758C610.43,731,623.79,777.59,624.39,812.55Z" transform="translate(-271.87 -138.89)"/><rect class="cls-7" x="1837.6" y="221.21" width="392.24" height="201.33" rx="50.33" transform="translate(3795.58 504.85) rotate(180)"/><polygon class="cls-7" points="1834.46 219.56 1841.85 362.21 1741.2 216.23 1834.46 219.56"/></g></g></svg>